<svg width="20" height="20" viewBox="0 0 20 20" fill="none" xmlns="http://www.w3.org/2000/svg">
<path d="M13.8388 5.58927L5.58926 13.8388C5.26382 14.1643 5.26382 14.6919 5.58926 15.0174C5.91469 15.3428 6.44233 15.3428 6.76777 15.0174L15.0173 6.76778C15.3428 6.44234 15.3428 5.9147 15.0173 5.58927C14.6919 5.26383 14.1643 5.26383 13.8388 5.58927Z" fill="#AAADB3"/>
<path d="M15.0173 13.8388L6.76772 5.58926C6.44229 5.26382 5.91465 5.26382 5.58921 5.58926C5.26377 5.91469 5.26377 6.44233 5.58921 6.76777L13.8388 15.0173C14.1642 15.3428 14.6919 15.3428 15.0173 15.0173C15.3427 14.6919 15.3427 14.1643 15.0173 13.8388Z" fill="#AAADB3"/>
</svg>
